<svg width="50" height="45" viewBox="0 0 50 45" fill="none" xmlns="http://www.w3.org/2000/svg">
<path d="M45.3125 22.25H37.5V16C37.5 12.582 40.2344 9.75 43.75 9.75H44.5312C45.8008 9.75 46.875 8.77344 46.875 7.40625V2.71875C46.875 1.44922 45.8008 0.375 44.5312 0.375H43.75C35.0586 0.375 28.125 7.40625 28.125 16V39.4375C28.125 42.0742 30.1758 44.125 32.8125 44.125H45.3125C47.8516 44.125 50 42.0742 50 39.4375V26.9375C50 24.3984 47.8516 22.25 45.3125 22.25ZM17.1875 22.25H9.375V16C9.375 12.582 12.1094 9.75 15.625 9.75H16.4062C17.6758 9.75 18.75 8.77344 18.75 7.40625V2.71875C18.75 1.44922 17.6758 0.375 16.4062 0.375H15.625C6.93359 0.375 0 7.40625 0 16V39.4375C0 42.0742 2.05078 44.125 4.6875 44.125H17.1875C19.7266 44.125 21.875 42.0742 21.875 39.4375V26.9375C21.875 24.3984 19.7266 22.25 17.1875 22.25Z" fill="#861536"/>
</svg>
